<?xml version="1.0" standalone="no"?>
<!DOCTYPE svg PUBLIC "-//W3C//DTD SVG 20010904//EN"
 "http://www.w3.org/TR/2001/REC-SVG-20010904/DTD/svg10.dtd">
<svg version="1.0" xmlns="http://www.w3.org/2000/svg"
 width="284.000000pt" height="119.000000pt" viewBox="0 0 284.000000 119.000000"
 preserveAspectRatio="xMidYMid meet">

<g transform="translate(0.000000,119.000000) scale(0.100000,-0.100000)"
fill="#000000" stroke="none">
<path d="M87 1073 c-4 -3 -7 -195 -7 -425 l0 -418 1360 0 1360 0 -2 423 -3
422 -1351 3 c-743 1 -1354 -1 -1357 -5z m2647 -75 c8 -30 8 -672 0 -692 -6
-14 -129 -16 -1294 -16 -1165 0 -1288 2 -1294 16 -8 20 -8 662 0 692 l6 22
1288 0 1288 0 6 -22z"/>
<path d="M332 895 c-36 -30 -40 -49 -73 -288 -21 -152 -22 -171 -8 -195 32
-57 125 -54 165 5 17 26 44 143 44 193 0 6 -18 10 -39 10 -44 0 -44 -1 -57
-103 -4 -36 -12 -61 -21 -64 -7 -3 -16 -3 -18 -1 -7 6 46 374 56 389 14 24 30
-3 25 -42 -3 -21 -9 -57 -12 -79 l-6 -40 40 0 c47 0 49 5 58 121 6 69 5 78
-15 98 -31 31 -100 29 -139 -4z"/>
<path d="M579 906 c-38 -22 -47 -53 -75 -255 -14 -102 -26 -190 -28 -196 -5
-16 22 -63 43 -75 44 -23 114 -3 143 42 9 14 26 105 43 231 l28 208 -20 27
c-16 21 -29 27 -64 29 -24 2 -56 -4 -70 -11z m61 -89 c0 -36 -38 -321 -46
-349 -5 -16 -34 -26 -34 -13 0 15 51 372 55 383 9 25 25 11 25 -21z"/>
<path d="M775 898 c-3 -13 -18 -124 -35 -248 -17 -124 -32 -235 -34 -247 -3
-21 1 -23 39 -23 l42 0 12 93 c18 138 17 135 54 139 29 3 32 6 35 41 3 36 2
37 -28 37 -32 0 -32 0 -25 43 17 112 14 106 54 109 34 3 36 5 39 41 l3 37 -75
0 c-70 0 -76 -2 -81 -22z"/>
<path d="M955 908 c-3 -7 -18 -114 -35 -238 -16 -124 -32 -240 -35 -258 l-6
-33 43 3 43 3 15 110 15 110 31 3 c23 2 34 9 38 25 12 46 8 57 -25 57 l-31 0
6 58 c11 88 13 92 51 92 25 0 34 5 39 23 14 55 12 57 -69 57 -52 0 -77 -4 -80
-12z"/>
<path d="M1130 912 c0 -4 -16 -122 -35 -262 -19 -140 -35 -258 -35 -262 0 -5
35 -8 79 -8 73 0 79 2 85 23 11 42 7 47 -34 47 l-40 0 7 48 c16 127 16 127 51
130 22 2 32 8 32 20 0 9 3 27 6 40 6 19 3 22 -26 22 l-33 0 7 46 c3 26 6 55 6
65 0 14 9 19 43 21 41 3 42 4 45 41 l3 37 -80 0 c-45 0 -81 -3 -81 -8z"/>
<path d="M1325 908 c-2 -7 -18 -114 -35 -238 -17 -124 -33 -240 -37 -258 l-5
-33 83 3 84 3 3 33 c3 30 2 32 -31 32 -18 0 -36 2 -39 5 -2 3 -1 33 4 68 15
106 15 107 47 107 21 0 30 6 35 23 12 46 8 57 -24 57 l-31 0 6 53 c9 76 10 77
54 77 36 0 39 2 44 33 2 17 3 35 0 40 -8 13 -153 8 -158 -5z"/>
<path d="M1506 904 c-3 -9 -6 -27 -6 -40 0 -20 5 -24 28 -24 l29 0 -28 -192
c-15 -106 -30 -210 -34 -231 l-5 -38 42 3 42 3 32 225 c18 124 33 226 33 227
1 1 13 3 29 5 23 3 27 8 30 41 l3 37 -94 0 c-77 0 -96 -3 -101 -16z"/>
<path d="M1741 911 c-9 -6 -24 -89 -47 -252 -18 -134 -34 -252 -34 -261 0 -14
8 -18 39 -18 44 0 40 -9 62 153 9 65 16 87 27 87 13 0 14 -13 8 -82 -3 -46 -9
-100 -12 -120 l-7 -38 41 0 c44 0 49 9 58 95 2 22 6 62 10 88 4 30 1 59 -6 78
-11 25 -10 32 4 48 10 11 22 48 29 84 13 75 0 118 -39 136 -29 13 -113 14
-133 2z m89 -110 c0 -48 -18 -101 -34 -101 -10 0 -11 15 -4 63 4 34 10 68 13
75 9 25 25 1 25 -37z"/>
<path d="M1986 898 c-3 -13 -26 -126 -51 -253 -26 -126 -49 -238 -51 -247 -5
-15 2 -18 39 -18 l44 0 14 78 c13 72 16 77 41 80 l26 3 -5 -80 -6 -81 40 0 39
0 21 262 c12 144 19 266 17 270 -3 4 -41 8 -84 8 -74 0 -80 -1 -84 -22z m83
-135 c-4 -43 -8 -93 -8 -110 -1 -29 -5 -33 -27 -33 -19 0 -24 4 -20 18 3 9 12
58 22 107 17 95 21 108 33 101 3 -3 3 -40 0 -83z"/>
<path d="M2252 904 c-38 -27 -49 -64 -76 -265 -28 -207 -26 -237 13 -258 35
-19 87 -13 120 15 33 28 46 63 56 162 l7 63 -38 -3 -39 -3 -15 -79 c-8 -44
-21 -81 -28 -84 -17 -5 -16 26 8 203 21 156 32 195 51 195 11 0 9 -47 -7 -137
-6 -33 -6 -33 34 -33 48 0 50 4 58 114 6 76 5 85 -15 105 -26 26 -95 29 -129
5z"/>
<path d="M2455 908 c-6 -16 -75 -486 -75 -510 0 -14 8 -18 39 -18 35 0 39 3
46 33 3 17 9 55 11 82 2 28 8 64 13 80 7 24 9 13 10 -51 1 -45 4 -96 7 -113 6
-29 10 -31 47 -31 l40 0 -6 53 c-4 28 -9 93 -13 142 -6 88 -5 93 35 204 23 63
41 120 41 128 0 9 -13 13 -39 13 -39 0 -40 -1 -54 -52 -9 -29 -22 -75 -31
-103 l-16 -50 5 43 c3 24 8 70 12 103 l6 59 -37 0 c-20 0 -39 -6 -41 -12z"/>
<path d="M1017 143 c-4 -3 -6 -29 -6 -57 2 -34 3 -41 6 -21 3 16 10 33 16 37
9 6 9 8 0 8 -7 0 -13 7 -13 16 0 8 5 12 10 9 6 -3 10 -1 10 4 0 12 -13 14 -23
4z"/>
<path d="M1903 95 c0 -33 2 -45 4 -27 2 18 2 45 0 60 -2 15 -4 0 -4 -33z"/>
<path d="M842 128 c-19 -19 -15 -76 6 -87 10 -5 24 -6 32 -1 10 6 7 9 -11 12
-20 2 -24 9 -24 38 0 32 2 35 28 33 15 -1 25 2 22 8 -9 13 -39 11 -53 -3z"/>
<path d="M1161 94 c-1 -37 3 -53 14 -57 8 -4 17 -2 20 3 4 6 -1 10 -9 10 -19
0 -21 31 -4 48 8 8 9 12 1 12 -6 0 -14 8 -16 18 -3 9 -5 -6 -6 -34z"/>
<path d="M1552 88 c3 -50 5 -53 32 -56 16 -2 33 1 39 7 8 8 2 11 -21 11 -37 0
-43 16 -9 23 l22 4 -22 2 c-17 1 -23 7 -23 25 0 20 6 25 33 29 27 3 26 4 -11
5 l-43 2 3 -52z"/>
<path d="M920 95 c-14 -16 -5 -51 14 -58 26 -10 56 4 56 27 0 42 -45 62 -70
31z m47 -6 c16 -16 5 -39 -17 -39 -25 0 -35 18 -20 35 15 18 22 19 37 4z"/>
<path d="M1072 94 c-20 -36 16 -74 49 -53 10 6 6 9 -13 9 -16 0 -28 5 -28 10
0 6 14 10 30 10 32 0 37 9 18 28 -17 17 -45 15 -56 -4z m43 -4 c3 -5 -3 -10
-15 -10 -12 0 -18 5 -15 10 3 6 10 10 15 10 5 0 12 -4 15 -10z"/>
<path d="M1233 103 c-7 -2 -13 -15 -13 -28 0 -28 29 -48 51 -34 11 7 9 9 -8 9
-12 0 -25 5 -28 10 -4 6 7 10 24 10 33 0 43 23 15 34 -18 7 -23 7 -41 -1z m42
-13 c4 -6 -6 -10 -22 -10 -22 0 -25 2 -13 10 19 12 27 12 35 0z"/>
<path d="M1311 70 c1 -21 3 -27 6 -15 3 11 12 28 20 37 14 15 13 17 -6 15 -17
-1 -21 -7 -20 -37z"/>
<path d="M1373 75 c0 -22 2 -30 4 -17 2 12 2 30 0 40 -3 9 -5 -1 -4 -23z"/>
<path d="M1412 98 c-17 -17 -15 -32 6 -51 24 -22 62 -12 62 17 0 26 -18 46
-40 46 -9 0 -21 -5 -28 -12z m48 -13 c15 -18 5 -35 -21 -35 -12 0 -19 7 -19
18 0 33 20 42 40 17z"/>
<path d="M1647 103 c-13 -13 -7 -24 21 -35 26 -11 26 -12 5 -15 -30 -6 -30
-25 -1 -21 30 4 37 38 9 45 -26 7 -27 20 -3 26 14 4 13 5 -4 6 -11 0 -24 -2
-27 -6z"/>
<path d="M1730 95 c-23 -28 18 -81 44 -55 7 7 3 10 -11 10 -11 0 -23 6 -26 14
-8 20 16 38 38 29 13 -4 16 -3 11 5 -10 17 -41 15 -56 -3z"/>
<path d="M1822 98 c-29 -29 -1 -71 39 -61 24 7 26 58 3 67 -22 8 -28 8 -42 -6z
m43 -24 c0 -10 -8 -20 -18 -22 -22 -4 -35 27 -16 39 20 12 34 5 34 -17z"/>
<path d="M1942 98 c-29 -29 -1 -71 39 -61 24 7 26 58 3 67 -22 8 -28 8 -42 -6z
m46 -21 c4 -21 -25 -34 -40 -19 -8 8 -8 16 2 27 16 19 34 15 38 -8z"/>
<path d="M2020 75 c0 -19 5 -35 10 -35 6 0 10 10 10 23 0 13 5 28 12 35 9 9 7
12 -10 12 -18 0 -22 -6 -22 -35z"/>
</g>
</svg>
